<?xml version="1.0" encoding="utf-8"?> <!-- Generator: IcoMoon.io --> <!DOCTYPE svg PUBLIC "-//W3C//DTD SVG 1.1//EN" "http://www.w3.org/Graphics/SVG/1.1/DTD/svg11.dtd"> <svg width="32.13875198364258" height="32.13868713378906" viewBox="0 0 32.13875198364258 32.13868713378906" xmlns="http://www.w3.org/2000/svg" xmlns:xlink="http://www.w3.org/1999/xlink" fill="#000000"><g><path d="M 31.708,25.708c-0-0-0-0-0-0L 22,16l 9.708-9.708c 0-0, 0-0, 0-0 c 0.104-0.105, 0.18-0.227, 0.229-0.357c 0.133-0.355, 0.057-0.771-0.229-1.057L 27.122,0.292c-0.286-0.286-0.702-0.361-1.057-0.229 c-0.13,0.048-0.252,0.124-0.357,0.228c0,0-0,0-0,0L 16,10L 6.292,0.292 c-0-0-0-0-0-0c-0.105-0.104-0.227-0.18-0.357-0.228c-0.356-0.133-0.771-0.057-1.057,0.229L 0.292,4.878 c-0.286,0.286-0.361,0.702-0.229,1.057c 0.049,0.13, 0.124,0.252, 0.229,0.357c 0,0, 0,0, 0,0L 10,16 L 0.292,25.708c-0,0-0,0-0,0c-0.104,0.105-0.18,0.227-0.229,0.357c-0.133,0.355-0.057,0.771, 0.229,1.057 l 4.586,4.586c 0.286,0.286, 0.702,0.361, 1.057,0.229c 0.13-0.049, 0.252-0.124, 0.357-0.229c 0-0, 0-0, 0-0 l 9.708-9.708l 9.708,9.708c 0,0, 0,0, 0,0c 0.105,0.104, 0.227,0.18, 0.357,0.229 c 0.356,0.133, 0.771,0.057, 1.057-0.229l 4.586-4.586c 0.286-0.286, 0.362-0.702, 0.229-1.057 C 31.888,25.935, 31.813,25.813, 31.708,25.708z"></path></g></svg>