<?xml version="1.0" encoding="utf-8"?> <!-- Generator: IcoMoon.io --> <!DOCTYPE svg PUBLIC "-//W3C//DTD SVG 1.1//EN" "http://www.w3.org/Graphics/SVG/1.1/DTD/svg11.dtd"> <svg width="32" height="32" viewBox="0 0 32 32" xmlns="http://www.w3.org/2000/svg" xmlns:xlink="http://www.w3.org/1999/xlink" fill="#000000"><g><path d="M 29.181,19.070c-1.679-2.908-0.669-6.635, 2.255-8.328l-3.145-5.447c-0.898,0.527-1.943,0.829-3.058,0.829 c-3.361,0-6.085-2.742-6.085-6.125L 12.86-0 c 0.008,1.044-0.252,2.103-0.811,3.070 c-1.679,2.908-5.411,3.897-8.339,2.211L 0.564,10.728c 0.905,0.515, 1.689,1.268, 2.246,2.234 c 1.676,2.903, 0.672,6.622-2.241,8.319l 3.145,5.447c 0.895-0.522, 1.935-0.82, 3.044-0.82 c 3.35,0, 6.067,2.725, 6.084,6.092l 6.289,0 c-0.003-1.034, 0.259-2.080, 0.811-3.038 c 1.676-2.903, 5.399-3.894, 8.325-2.219l 3.145-5.447C 30.514,20.782, 29.735,20.031, 29.181,19.070z M 16,22.479 c-3.578,0-6.479-2.901-6.479-6.479c0-3.578, 2.901-6.479, 6.479-6.479c 3.578,0, 6.479,2.901, 6.479,6.479 C 22.479,19.578, 19.578,22.479, 16,22.479z"></path></g></svg>